<svg width="176" height="365" viewBox="0 0 176 365" fill="none" xmlns="http://www.w3.org/2000/svg">
<g clip-path="url(#clip0_1808_4190)">
<rect width="176" height="365" fill="#636C78"/>
<mask id="mask0_1808_4190" style="mask-type:alpha" maskUnits="userSpaceOnUse" x="-1" y="0" width="178" height="365">
<rect x="-0.320312" width="177" height="365" fill="#C4C4C4"/>
</mask>
<g mask="url(#mask0_1808_4190)">
<path d="M181.016 -0.808105L-83.3203 -0.808105L-83.3203 378.904L181.016 378.904L181.016 -0.808105Z" fill="#121713"/>
<path d="M181.394 189.047L181.394 378.998H49.2266L181.394 189.047Z" fill="#4C4E8E"/>
<path d="M181.586 283.881V379H115.359L181.586 283.881Z" fill="#FF5545"/>
<path d="M49.1325 94.0225L49.1325 189.046H-17.0937L49.1325 94.0225Z" fill="#4C4E8E"/>
<path d="M49.1325 283.881L49.1325 379H-17.0937L49.1325 283.881Z" fill="#4C4E8E"/>
<path d="M115.548 283.688V284.07L115.453 283.879L115.358 284.07V283.688L49.2266 188.76H115.358H115.548L181.679 188.76L115.548 283.688Z" fill="#FF5545"/>
<path d="M49.417 93.8336L-83.3203 93.8336L-83.3203 -0.808105L115.264 -0.808105L49.417 93.8336Z" fill="#FF5545"/>
<path d="M181.394 -0.809082L181.394 189.047L49.2266 189.047L181.394 -0.809082Z" fill="#4C4E8E"/>
<path d="M-83.1289 283.689L-17.2822 189.047L115.455 189.047L115.455 283.689H-83.1289Z" fill="#FF5545"/>
<path d="M49.1325 -1L49.1325 94.1188L-17.0937 94.1188L49.1325 -1Z" fill="#121713"/>
<path d="M181.586 94.0225V189.046H115.359L181.586 94.0225Z" fill="#121713"/>
<path d="M115.453 188.855L115.453 283.974H49.2266L115.453 188.855Z" fill="#4C4E8E"/>
</g>
</g>
<defs>
<clipPath id="clip0_1808_4190">
<rect width="176" height="365" fill="white"/>
</clipPath>
</defs>
</svg>
