<svg width="170" height="250" viewBox="0 0 170 250" fill="none" xmlns="http://www.w3.org/2000/svg">
<rect width="170" height="250" fill="#636C78"/>
<mask id="mask0_1808_4193" style="mask-type:alpha" maskUnits="userSpaceOnUse" x="0" y="0" width="170" height="250">
<rect width="170" height="250" fill="#C4C4C4"/>
</mask>
<g mask="url(#mask0_1808_4193)">
<path d="M1.52588e-05 250L170 250L170 0.000350952L3.71145e-05 0.00033609L1.52588e-05 250Z" fill="#432E2D"/>
<path d="M0.00153351 175L85.6406 175L85.6406 88.158L0.0015411 88.158L0.00153351 175Z" fill="#FF7A2D"/>
<path d="M85.3188 175.094L170 175.094L170 87.7039L85.3188 87.7039L85.3188 175.094Z" fill="#FF7A2D"/>
<path d="M0.00154052 175L85.6406 250L0.00153396 250L0.00154052 175Z" fill="#CFC6B4"/>
<path d="M85.258 250L170 175.094L85.258 175.094L85.258 250Z" fill="#FF5545"/>
<path d="M85.3188 87.3906L170 87.3906L170 0.000297546L85.3188 0.000290143L85.3188 87.3906Z" fill="#FF7A2D"/>
<path d="M85.3477 175L85.3477 0.000241231C62.7118 0.000239253 41.0031 9.20244 24.9971 25.5824C8.99112 41.9625 -0.000938743 64.1785 -0.000940768 87.3434C-0.000942793 110.508 8.99111 132.724 24.9971 149.104C41.0031 165.484 62.7118 174.686 85.3477 174.686L85.3477 175Z" fill="#FF5545"/>
<path d="M84.9695 175L170 175L170 88.158L5.68642e-05 88.158C0.0323796 111.201 8.99876 133.29 24.9301 149.572C40.8615 165.855 62.4553 175 84.9695 175V175Z" fill="#CFC6B4"/>
<path d="M170 175.094L170 -6.30915e-05C147.541 -6.50549e-05 126.002 9.2071 110.121 25.596C94.2405 41.9848 85.3188 64.2129 85.3188 87.3902C85.3188 110.568 94.2405 132.796 110.121 149.185C126.002 165.573 147.541 174.781 170 174.781L170 175.094Z" fill="#432E2D"/>
<path d="M170 131.368L170 43.9145C164.083 43.3016 158.107 43.9753 152.458 45.8921C146.809 47.809 141.612 50.9265 137.202 55.0435C132.792 59.1605 129.268 64.1857 126.855 69.7949C124.443 75.4041 123.197 81.4728 123.197 87.6097C123.197 93.7465 124.443 99.8153 126.855 105.424C129.268 111.034 132.792 116.059 137.202 120.176C141.612 124.293 146.809 127.41 152.458 129.327C158.107 131.244 164.083 131.918 170 131.305L170 131.368Z" fill="#CFC6B4"/>
<path d="M85.2578 131.369L85.2578 43.9156C74.7605 45.003 65.0289 50.0758 57.9512 58.1498C50.8735 66.2238 46.9544 76.7232 46.9544 87.6107C46.9544 98.4983 50.8735 108.998 57.9512 117.072C65.0289 125.146 74.7605 130.219 85.2578 131.306L85.2578 131.369Z" fill="#CFC6B4"/>
<path d="M170 175.094L170 87.8294L85.258 87.8294C85.3063 110.991 94.2557 133.186 110.143 149.546C126.03 165.906 147.557 175.094 170 175.094V175.094Z" fill="#FF7A2D"/>
</g>
</svg>
